<?xml version="1.0" encoding="UTF-8"?>
<!DOCTYPE svg PUBLIC "-//W3C//DTD SVG 1.1//EN" "http://www.w3.org/Graphics/SVG/1.1/DTD/svg11.dtd">
<!-- Creator: CorelDRAW Home & Student X8 -->
<svg xmlns="http://www.w3.org/2000/svg" xml:space="preserve" width="3.9in" height="7.8in" version="1.1" style="shape-rendering:geometricPrecision; text-rendering:geometricPrecision; image-rendering:optimizeQuality; fill-rule:evenodd; clip-rule:evenodd"
viewBox="0 0 3900 7800"
 xmlns:xlink="http://www.w3.org/1999/xlink">
 <defs>
  <style type="text/css">
   <![CDATA[
    .str0 {stroke:#373435;stroke-width:6.94488}
    .str1 {stroke:#F58634;stroke-width:6.94488}
    .fil4 {fill:#4B4B4D}
    .fil13 {fill:#F58634}
    .fil7 {fill:url(#id1)}
    .fil12 {fill:url(#id2)}
    .fil14 {fill:url(#id3)}
    .fil5 {fill:url(#id4)}
    .fil3 {fill:url(#id5)}
    .fil8 {fill:url(#id6)}
    .fil0 {fill:url(#id7)}
    .fil1 {fill:url(#id8)}
    .fil2 {fill:url(#id9)}
    .fil11 {fill:url(#id10);fill-rule:nonzero}
    .fil6 {fill:url(#id11);fill-rule:nonzero}
    .fil10 {fill:url(#id12);fill-rule:nonzero}
    .fil9 {fill:url(#id13);fill-rule:nonzero}
   ]]>
  </style>
   <clipPath id="id0">
    <rect x="1083" y="7103" width="1530" height="430"/>
   </clipPath>
  <linearGradient id="id1" gradientUnits="userSpaceOnUse" x1="1575.14" y1="6114.11" x2="1952.11" y2="8155.68">
   <stop offset="0" style="stop-opacity:1; stop-color:#F58634"/>
   <stop offset="1" style="stop-opacity:1; stop-color:#FEFEFE"/>
  </linearGradient>
  <linearGradient id="id2" gradientUnits="userSpaceOnUse" x1="2130.98" y1="4140.73" x2="1183.06" y2="4140.67">
   <stop offset="0" style="stop-opacity:1; stop-color:#4B4B4D"/>
   <stop offset="1" style="stop-opacity:1; stop-color:#FEFEFE"/>
  </linearGradient>
  <linearGradient id="id3" gradientUnits="userSpaceOnUse" xlink:href="#id2" x1="1600.98" y1="4104.44" x2="653.063" y2="4104.38">
  </linearGradient>
  <linearGradient id="id4" gradientUnits="userSpaceOnUse" xlink:href="#id1" x1="1802.37" y1="5515.69" x2="427.37" y2="5536.52">
  </linearGradient>
  <linearGradient id="id5" gradientUnits="userSpaceOnUse" x1="665.583" y1="2935.35" x2="689.161" y2="3704.02">
   <stop offset="0" style="stop-opacity:1; stop-color:#FFF212"/>
   <stop offset="1" style="stop-opacity:1; stop-color:#FEFEFE"/>
  </linearGradient>
  <linearGradient id="id6" gradientUnits="userSpaceOnUse" xlink:href="#id1" x1="1286.03" y1="4530.7" x2="-65.6969" y2="5148.08">
  </linearGradient>
  <linearGradient id="id7" gradientUnits="userSpaceOnUse" x1="-5780.86" y1="-1346.27" x2="-5486.99" y2="1575.55">
   <stop offset="0" style="stop-opacity:1; stop-color:#E6E7E8"/>
   <stop offset="0.529412" style="stop-opacity:1; stop-color:#F2F2F3"/>
   <stop offset="1" style="stop-opacity:1; stop-color:#FEFEFE"/>
  </linearGradient>
  <linearGradient id="id8" gradientUnits="userSpaceOnUse" xlink:href="#id7" x1="-4032.93" y1="133.724" x2="-3805.81" y2="2391.89">
  </linearGradient>
  <linearGradient id="id9" gradientUnits="userSpaceOnUse" x1="-1765.84" y1="1278.3" x2="-1701.96" y2="3209.83">
   <stop offset="0" style="stop-opacity:1; stop-color:#E6E7E8"/>
   <stop offset="1" style="stop-opacity:1; stop-color:#FEFEFE"/>
  </linearGradient>
  <linearGradient id="id10" gradientUnits="userSpaceOnUse" x1="-1773.92" y1="9707.87" x2="-1907.31" y2="9732.46">
   <stop offset="0" style="stop-opacity:1; stop-color:#FFF212"/>
   <stop offset="0.701961" style="stop-opacity:1; stop-color:#FFF888"/>
   <stop offset="1" style="stop-opacity:1; stop-color:#FEFEFE"/>
  </linearGradient>
  <linearGradient id="id11" gradientUnits="userSpaceOnUse" xlink:href="#id10" x1="-1873.41" y1="8850.2" x2="-2052.46" y2="8449.47">
  </linearGradient>
  <linearGradient id="id12" gradientUnits="userSpaceOnUse" x1="-2809.25" y1="8799.82" x2="-2735.65" y2="8852.67">
   <stop offset="0" style="stop-opacity:1; stop-color:#FFF212"/>
   <stop offset="0.768627" style="stop-opacity:1; stop-color:#FFF888"/>
   <stop offset="1" style="stop-opacity:1; stop-color:#FEFEFE"/>
  </linearGradient>
  <linearGradient id="id13" gradientUnits="userSpaceOnUse" xlink:href="#id10" x1="-1745.52" y1="8841.22" x2="-1904.93" y2="8876.89">
  </linearGradient>
 </defs>
 <g id="Layer_x0020_1">
  <metadata id="CorelCorpID_0Corel-Layer"/>
  <path class="fil0 str0" d="M788 115l2288 0c371,0 674,303 674,673l0 109c0,370 -303,673 -674,673l-415 0c-22,-158 -157,-279 -321,-279l-917 0c-163,0 -299,121 -320,279l-315 0c-370,0 -673,-303 -673,-673l0 -109c0,-370 303,-673 673,-673z"/>
  <path class="fil1 str0" d="M1044 1263l1768 0c287,0 521,234 521,520l0 84c0,287 -234,521 -521,521l-321 0c-16,-122 -121,-216 -248,-216l-708 0c-127,0 -231,94 -248,216l-243 0c-286,0 -520,-234 -520,-521l0 -84c0,-286 234,-520 520,-520z"/>
  <rect class="fil2 str0" x="1051" y="2169" width="1670" height="833" rx="400" ry="400"/>
  <rect class="fil3 str0" x="1165" y="2773" width="1424" height="1271" rx="400" ry="400"/>
  <ellipse class="fil4 str0" cx="1848" cy="6526" rx="467" ry="630"/>
  <rect class="fil5 str0" x="1382" y="4950" width="937" height="1823" rx="400" ry="400"/>
  <polygon class="fil6 str0" points="-2559,8753 -2267,9365 -2736,9162 "/>
  <path class="fil7 str1" d="M1837 4329l-5 1741 878 -859c106,-103 673,-274 673,-422l0 -190c0,-148 -122,-270 -270,-270l-1276 0z"/>
  <path class="fil8 str1" d="M1835 4333l3 1158 -4 -4c-89,-106 -247,-120 -352,-31 -48,41 -77,95 -86,153l-376 -394c-99,-104 -627,-274 -627,-423l0 -189c0,-149 113,-270 252,-270l1190 0z"/>
  <polygon class="fil9 str0" points="-1781,7948 -2084,8559 -1597,8357 "/>
  <polygon class="fil10 str0" points="-2578,7999 -2286,8611 -2755,8409 "/>
  <polygon class="fil11 str0" points="-1804,8809 -2054,9420 -1653,9218 "/>
  <rect class="fil12 str0" x="1857" y="3864" width="527" height="618" rx="65" ry="129"/>
  <path class="fil13 str0" d="M1843 4104l-6 1313 451 -710c53,-83 317,-256 314,-368l-5 -142c-3,-111 -64,-192 -136,-182l-618 89z"/>
  <rect class="fil14 str0" x="1327" y="3864" width="527" height="537" rx="65" ry="112"/>
  <g style="clip-path:url(#id0)">
   <image x="1083" y="7103" width="1530" height="430" xlink:href="spaceshiptohell_Images\spaceshiptohell_ImgID1.png"/>
  </g>
 </g>
</svg>
